<mxfile host="app.diagrams.net" agent="Mozilla/5.0 (Windows NT 10.0; Win64; x64) AppleWebKit/537.36 (KHTML, like Gecko) Chrome/127.0.0.0 Safari/537.36" version="24.7.6">
  <diagram name="Page-1" id="7oypQDB3SKRC0D1iNIvr">
    <mxGraphModel dx="2045" dy="622" grid="1" gridSize="10" guides="1" tooltips="1" connect="1" arrows="1" fold="1" page="1" pageScale="1" pageWidth="850" pageHeight="1100" math="0" shadow="0">
      <root>
        <mxCell id="0" />
        <mxCell id="1" parent="0" />
        <mxCell id="VYR5HJMIhHFBfFQLynJq-1" value="Library Manager" style="shape=umlActor;verticalLabelPosition=bottom;verticalAlign=top;html=1;outlineConnect=0;" vertex="1" parent="1">
          <mxGeometry x="-310" y="120" width="30" height="60" as="geometry" />
        </mxCell>
        <mxCell id="VYR5HJMIhHFBfFQLynJq-2" value="Customer" style="shape=umlActor;verticalLabelPosition=bottom;verticalAlign=top;html=1;outlineConnect=0;" vertex="1" parent="1">
          <mxGeometry x="-330" y="420" width="30" height="60" as="geometry" />
        </mxCell>
        <mxCell id="VYR5HJMIhHFBfFQLynJq-6" value="Login" style="ellipse;whiteSpace=wrap;html=1;fillColor=#fff2cc;strokeColor=#000000;" vertex="1" parent="1">
          <mxGeometry x="60" y="80" width="80" height="50" as="geometry" />
        </mxCell>
        <mxCell id="VYR5HJMIhHFBfFQLynJq-7" value="Logout" style="ellipse;whiteSpace=wrap;html=1;fillColor=#fff2cc;strokeColor=#000000;" vertex="1" parent="1">
          <mxGeometry x="-165" y="14" width="80" height="50" as="geometry" />
        </mxCell>
        <mxCell id="VYR5HJMIhHFBfFQLynJq-11" value="External Mail&lt;div&gt;Service&lt;/div&gt;" style="shape=umlActor;verticalLabelPosition=bottom;verticalAlign=top;html=1;outlineConnect=0;" vertex="1" parent="1">
          <mxGeometry x="463" y="410" width="30" height="60" as="geometry" />
        </mxCell>
        <mxCell id="VYR5HJMIhHFBfFQLynJq-12" value="External Borrowing&lt;div&gt;Service&lt;/div&gt;" style="shape=umlActor;verticalLabelPosition=bottom;verticalAlign=top;html=1;outlineConnect=0;" vertex="1" parent="1">
          <mxGeometry x="463" y="250" width="30" height="60" as="geometry" />
        </mxCell>
        <mxCell id="VYR5HJMIhHFBfFQLynJq-13" value="Other Library" style="shape=umlActor;verticalLabelPosition=bottom;verticalAlign=top;html=1;outlineConnect=0;" vertex="1" parent="1">
          <mxGeometry x="-330" y="730" width="30" height="60" as="geometry" />
        </mxCell>
        <mxCell id="VYR5HJMIhHFBfFQLynJq-16" value="Add New&lt;div&gt;Book&lt;/div&gt;" style="ellipse;whiteSpace=wrap;html=1;fillColor=#fff2cc;strokeColor=#000000;" vertex="1" parent="1">
          <mxGeometry x="-165" y="130" width="80" height="50" as="geometry" />
        </mxCell>
        <mxCell id="VYR5HJMIhHFBfFQLynJq-17" value="Un/Mark Book&lt;div&gt;as Rare&lt;/div&gt;" style="ellipse;whiteSpace=wrap;html=1;fillColor=#fff2cc;strokeColor=#000000;" vertex="1" parent="1">
          <mxGeometry x="-165" y="210" width="80" height="50" as="geometry" />
        </mxCell>
        <mxCell id="VYR5HJMIhHFBfFQLynJq-18" value="Update Book" style="ellipse;whiteSpace=wrap;html=1;fillColor=#fff2cc;strokeColor=#000000;" vertex="1" parent="1">
          <mxGeometry x="-39" y="170" width="80" height="50" as="geometry" />
        </mxCell>
        <mxCell id="VYR5HJMIhHFBfFQLynJq-19" value="Register Library" style="ellipse;whiteSpace=wrap;html=1;fillColor=#fff2cc;strokeColor=#000000;" vertex="1" parent="1">
          <mxGeometry x="-165" y="315" width="80" height="50" as="geometry" />
        </mxCell>
        <mxCell id="VYR5HJMIhHFBfFQLynJq-20" value="Track Book Borrowing Status" style="ellipse;whiteSpace=wrap;html=1;fillColor=#fff2cc;strokeColor=#000000;" vertex="1" parent="1">
          <mxGeometry x="-54" y="260" width="110" height="60" as="geometry" />
        </mxCell>
        <mxCell id="VYR5HJMIhHFBfFQLynJq-21" value="View User Book Borrowing History" style="ellipse;whiteSpace=wrap;html=1;fillColor=#fff2cc;strokeColor=#000000;" vertex="1" parent="1">
          <mxGeometry x="-54" y="350" width="110" height="60" as="geometry" />
        </mxCell>
        <mxCell id="VYR5HJMIhHFBfFQLynJq-22" value="View Inter-Libraries Loan" style="ellipse;whiteSpace=wrap;html=1;fillColor=#fff2cc;strokeColor=#000000;" vertex="1" parent="1">
          <mxGeometry x="-180" y="400" width="110" height="60" as="geometry" />
        </mxCell>
        <mxCell id="VYR5HJMIhHFBfFQLynJq-24" value="Update Suppliers" style="ellipse;whiteSpace=wrap;html=1;fillColor=#fff2cc;strokeColor=#000000;" vertex="1" parent="1">
          <mxGeometry x="-165" y="500" width="80" height="50" as="geometry" />
        </mxCell>
        <mxCell id="VYR5HJMIhHFBfFQLynJq-25" value="Update From Supply" style="ellipse;whiteSpace=wrap;html=1;fillColor=#fff2cc;strokeColor=#000000;" vertex="1" parent="1">
          <mxGeometry x="-39" y="450" width="80" height="50" as="geometry" />
        </mxCell>
        <mxCell id="VYR5HJMIhHFBfFQLynJq-27" value="Manage Supplier Services" style="ellipse;whiteSpace=wrap;html=1;fillColor=#fff2cc;strokeColor=#000000;" vertex="1" parent="1">
          <mxGeometry x="-54" y="540" width="110" height="60" as="geometry" />
        </mxCell>
        <mxCell id="VYR5HJMIhHFBfFQLynJq-28" value="Send Notification to Customers" style="ellipse;whiteSpace=wrap;html=1;fillColor=#fff2cc;strokeColor=#000000;" vertex="1" parent="1">
          <mxGeometry x="-180" y="600" width="110" height="60" as="geometry" />
        </mxCell>
        <mxCell id="VYR5HJMIhHFBfFQLynJq-29" value="View My Book Borrowing History" style="ellipse;whiteSpace=wrap;html=1;fillColor=#fff2cc;strokeColor=#000000;" vertex="1" parent="1">
          <mxGeometry x="-460" y="520" width="110" height="60" as="geometry" />
        </mxCell>
        <mxCell id="VYR5HJMIhHFBfFQLynJq-37" value="" style="endArrow=none;html=1;rounded=0;entryX=0;entryY=0.5;entryDx=0;entryDy=0;exitX=0;exitY=0.5;exitDx=0;exitDy=0;" edge="1" parent="1" source="VYR5HJMIhHFBfFQLynJq-28" target="VYR5HJMIhHFBfFQLynJq-7">
          <mxGeometry width="50" height="50" relative="1" as="geometry">
            <mxPoint x="-200" y="360" as="sourcePoint" />
            <mxPoint x="50" y="130" as="targetPoint" />
            <Array as="points">
              <mxPoint x="-200" y="630" />
              <mxPoint x="-200" y="39" />
            </Array>
          </mxGeometry>
        </mxCell>
        <mxCell id="VYR5HJMIhHFBfFQLynJq-39" value="&amp;lt;&amp;lt;include&amp;gt;&amp;gt;" style="endArrow=open;endSize=12;dashed=1;html=1;rounded=0;exitX=1;exitY=0.5;exitDx=0;exitDy=0;entryX=0.5;entryY=0;entryDx=0;entryDy=0;" edge="1" parent="1" source="VYR5HJMIhHFBfFQLynJq-7" target="VYR5HJMIhHFBfFQLynJq-6">
          <mxGeometry width="160" relative="1" as="geometry">
            <mxPoint x="140" y="280" as="sourcePoint" />
            <mxPoint x="300" y="280" as="targetPoint" />
            <Array as="points">
              <mxPoint x="100" y="40" />
            </Array>
          </mxGeometry>
        </mxCell>
        <mxCell id="VYR5HJMIhHFBfFQLynJq-44" value="" style="endArrow=none;html=1;rounded=0;exitX=0;exitY=0.5;exitDx=0;exitDy=0;" edge="1" parent="1" source="VYR5HJMIhHFBfFQLynJq-6">
          <mxGeometry width="50" height="50" relative="1" as="geometry">
            <mxPoint x="200" y="310" as="sourcePoint" />
            <mxPoint x="-200" y="105" as="targetPoint" />
          </mxGeometry>
        </mxCell>
        <mxCell id="VYR5HJMIhHFBfFQLynJq-50" value="" style="endArrow=none;html=1;rounded=0;exitX=0;exitY=0.5;exitDx=0;exitDy=0;" edge="1" parent="1" source="VYR5HJMIhHFBfFQLynJq-16">
          <mxGeometry width="50" height="50" relative="1" as="geometry">
            <mxPoint x="200" y="310" as="sourcePoint" />
            <mxPoint x="-200" y="155" as="targetPoint" />
          </mxGeometry>
        </mxCell>
        <mxCell id="VYR5HJMIhHFBfFQLynJq-51" value="&amp;lt;&amp;lt;include&amp;gt;&amp;gt;" style="endArrow=open;endSize=12;dashed=1;html=1;rounded=0;entryX=0.5;entryY=1;entryDx=0;entryDy=0;exitX=1;exitY=0.5;exitDx=0;exitDy=0;" edge="1" parent="1" source="VYR5HJMIhHFBfFQLynJq-28" target="VYR5HJMIhHFBfFQLynJq-6">
          <mxGeometry x="0.3134" width="160" relative="1" as="geometry">
            <mxPoint x="81" y="410" as="sourcePoint" />
            <mxPoint x="91" y="90" as="targetPoint" />
            <Array as="points">
              <mxPoint x="100" y="630" />
            </Array>
            <mxPoint as="offset" />
          </mxGeometry>
        </mxCell>
        <mxCell id="VYR5HJMIhHFBfFQLynJq-53" value="" style="endArrow=none;dashed=1;html=1;rounded=0;exitX=1;exitY=0.5;exitDx=0;exitDy=0;" edge="1" parent="1" source="VYR5HJMIhHFBfFQLynJq-16">
          <mxGeometry width="50" height="50" relative="1" as="geometry">
            <mxPoint x="180" y="330" as="sourcePoint" />
            <mxPoint x="100" y="155" as="targetPoint" />
          </mxGeometry>
        </mxCell>
        <mxCell id="VYR5HJMIhHFBfFQLynJq-54" value="" style="endArrow=none;dashed=1;html=1;rounded=0;exitX=1;exitY=0.5;exitDx=0;exitDy=0;" edge="1" parent="1" source="VYR5HJMIhHFBfFQLynJq-18">
          <mxGeometry width="50" height="50" relative="1" as="geometry">
            <mxPoint x="90" y="190" as="sourcePoint" />
            <mxPoint x="100" y="195" as="targetPoint" />
          </mxGeometry>
        </mxCell>
        <mxCell id="VYR5HJMIhHFBfFQLynJq-55" value="" style="endArrow=none;dashed=1;html=1;rounded=0;exitX=1;exitY=0.5;exitDx=0;exitDy=0;" edge="1" parent="1" source="VYR5HJMIhHFBfFQLynJq-17">
          <mxGeometry width="50" height="50" relative="1" as="geometry">
            <mxPoint x="-59" y="234.66" as="sourcePoint" />
            <mxPoint x="100" y="235" as="targetPoint" />
          </mxGeometry>
        </mxCell>
        <mxCell id="VYR5HJMIhHFBfFQLynJq-56" value="" style="endArrow=none;dashed=1;html=1;rounded=0;exitX=1;exitY=0.5;exitDx=0;exitDy=0;" edge="1" parent="1" source="VYR5HJMIhHFBfFQLynJq-20">
          <mxGeometry width="50" height="50" relative="1" as="geometry">
            <mxPoint x="-75" y="245" as="sourcePoint" />
            <mxPoint x="100" y="290" as="targetPoint" />
          </mxGeometry>
        </mxCell>
        <mxCell id="VYR5HJMIhHFBfFQLynJq-57" value="" style="endArrow=none;dashed=1;html=1;rounded=0;exitX=1;exitY=0.5;exitDx=0;exitDy=0;" edge="1" parent="1" source="VYR5HJMIhHFBfFQLynJq-19">
          <mxGeometry width="50" height="50" relative="1" as="geometry">
            <mxPoint x="66" y="300" as="sourcePoint" />
            <mxPoint x="100" y="340" as="targetPoint" />
          </mxGeometry>
        </mxCell>
        <mxCell id="VYR5HJMIhHFBfFQLynJq-58" value="" style="endArrow=none;dashed=1;html=1;rounded=0;exitX=1;exitY=0.5;exitDx=0;exitDy=0;" edge="1" parent="1" source="VYR5HJMIhHFBfFQLynJq-21">
          <mxGeometry width="50" height="50" relative="1" as="geometry">
            <mxPoint x="70" y="410" as="sourcePoint" />
            <mxPoint x="105" y="379.66" as="targetPoint" />
          </mxGeometry>
        </mxCell>
        <mxCell id="VYR5HJMIhHFBfFQLynJq-59" value="" style="endArrow=none;dashed=1;html=1;rounded=0;exitX=1;exitY=0.5;exitDx=0;exitDy=0;" edge="1" parent="1" source="VYR5HJMIhHFBfFQLynJq-25">
          <mxGeometry width="50" height="50" relative="1" as="geometry">
            <mxPoint x="-65" y="360" as="sourcePoint" />
            <mxPoint x="100" y="475" as="targetPoint" />
          </mxGeometry>
        </mxCell>
        <mxCell id="VYR5HJMIhHFBfFQLynJq-60" value="" style="endArrow=none;dashed=1;html=1;rounded=0;exitX=1;exitY=0.5;exitDx=0;exitDy=0;" edge="1" parent="1" source="VYR5HJMIhHFBfFQLynJq-22">
          <mxGeometry width="50" height="50" relative="1" as="geometry">
            <mxPoint x="-55" y="370" as="sourcePoint" />
            <mxPoint x="100" y="430" as="targetPoint" />
          </mxGeometry>
        </mxCell>
        <mxCell id="VYR5HJMIhHFBfFQLynJq-61" value="" style="endArrow=none;dashed=1;html=1;rounded=0;exitX=1;exitY=0.5;exitDx=0;exitDy=0;" edge="1" parent="1" source="VYR5HJMIhHFBfFQLynJq-24">
          <mxGeometry width="50" height="50" relative="1" as="geometry">
            <mxPoint x="-45" y="380" as="sourcePoint" />
            <mxPoint x="100" y="525" as="targetPoint" />
          </mxGeometry>
        </mxCell>
        <mxCell id="VYR5HJMIhHFBfFQLynJq-62" value="" style="endArrow=none;html=1;rounded=0;entryX=0;entryY=0.5;entryDx=0;entryDy=0;" edge="1" parent="1" target="VYR5HJMIhHFBfFQLynJq-18">
          <mxGeometry width="50" height="50" relative="1" as="geometry">
            <mxPoint x="-200" y="195" as="sourcePoint" />
            <mxPoint x="-190" y="165" as="targetPoint" />
          </mxGeometry>
        </mxCell>
        <mxCell id="VYR5HJMIhHFBfFQLynJq-63" value="" style="endArrow=none;html=1;rounded=0;exitX=0;exitY=0.5;exitDx=0;exitDy=0;" edge="1" parent="1" source="VYR5HJMIhHFBfFQLynJq-17">
          <mxGeometry width="50" height="50" relative="1" as="geometry">
            <mxPoint x="-145" y="175" as="sourcePoint" />
            <mxPoint x="-200" y="235" as="targetPoint" />
          </mxGeometry>
        </mxCell>
        <mxCell id="VYR5HJMIhHFBfFQLynJq-64" value="" style="endArrow=none;html=1;rounded=0;exitX=0;exitY=0.5;exitDx=0;exitDy=0;" edge="1" parent="1" source="VYR5HJMIhHFBfFQLynJq-20">
          <mxGeometry width="50" height="50" relative="1" as="geometry">
            <mxPoint x="-135" y="185" as="sourcePoint" />
            <mxPoint x="-200" y="290" as="targetPoint" />
          </mxGeometry>
        </mxCell>
        <mxCell id="VYR5HJMIhHFBfFQLynJq-65" value="" style="endArrow=none;html=1;rounded=0;exitX=0;exitY=0.5;exitDx=0;exitDy=0;" edge="1" parent="1" source="VYR5HJMIhHFBfFQLynJq-19">
          <mxGeometry width="50" height="50" relative="1" as="geometry">
            <mxPoint x="-125" y="195" as="sourcePoint" />
            <mxPoint x="-200" y="340" as="targetPoint" />
          </mxGeometry>
        </mxCell>
        <mxCell id="VYR5HJMIhHFBfFQLynJq-66" value="" style="endArrow=none;html=1;rounded=0;exitX=0;exitY=0.5;exitDx=0;exitDy=0;" edge="1" parent="1" source="VYR5HJMIhHFBfFQLynJq-21">
          <mxGeometry width="50" height="50" relative="1" as="geometry">
            <mxPoint x="-115" y="205" as="sourcePoint" />
            <mxPoint x="-200" y="380" as="targetPoint" />
          </mxGeometry>
        </mxCell>
        <mxCell id="VYR5HJMIhHFBfFQLynJq-67" value="" style="endArrow=none;html=1;rounded=0;exitX=0;exitY=0.5;exitDx=0;exitDy=0;" edge="1" parent="1" source="VYR5HJMIhHFBfFQLynJq-22">
          <mxGeometry width="50" height="50" relative="1" as="geometry">
            <mxPoint x="-105" y="215" as="sourcePoint" />
            <mxPoint x="-200" y="430" as="targetPoint" />
          </mxGeometry>
        </mxCell>
        <mxCell id="VYR5HJMIhHFBfFQLynJq-68" value="" style="endArrow=none;html=1;rounded=0;exitX=0;exitY=0.5;exitDx=0;exitDy=0;" edge="1" parent="1" source="VYR5HJMIhHFBfFQLynJq-25">
          <mxGeometry width="50" height="50" relative="1" as="geometry">
            <mxPoint x="-95" y="225" as="sourcePoint" />
            <mxPoint x="-200" y="475" as="targetPoint" />
          </mxGeometry>
        </mxCell>
        <mxCell id="VYR5HJMIhHFBfFQLynJq-69" value="" style="endArrow=none;html=1;rounded=0;exitX=0;exitY=0.5;exitDx=0;exitDy=0;" edge="1" parent="1" source="VYR5HJMIhHFBfFQLynJq-24">
          <mxGeometry width="50" height="50" relative="1" as="geometry">
            <mxPoint x="-85" y="235" as="sourcePoint" />
            <mxPoint x="-200" y="525" as="targetPoint" />
          </mxGeometry>
        </mxCell>
        <mxCell id="VYR5HJMIhHFBfFQLynJq-70" value="" style="endArrow=none;html=1;rounded=0;" edge="1" parent="1">
          <mxGeometry width="50" height="50" relative="1" as="geometry">
            <mxPoint x="-260" y="154.92" as="sourcePoint" />
            <mxPoint x="-200" y="154.92" as="targetPoint" />
          </mxGeometry>
        </mxCell>
        <mxCell id="VYR5HJMIhHFBfFQLynJq-71" value="" style="endArrow=none;html=1;rounded=0;exitX=0;exitY=0.5;exitDx=0;exitDy=0;" edge="1" parent="1" source="VYR5HJMIhHFBfFQLynJq-27">
          <mxGeometry width="50" height="50" relative="1" as="geometry">
            <mxPoint x="-155" y="535" as="sourcePoint" />
            <mxPoint x="-200" y="570" as="targetPoint" />
          </mxGeometry>
        </mxCell>
        <mxCell id="VYR5HJMIhHFBfFQLynJq-72" value="" style="endArrow=none;dashed=1;html=1;rounded=0;exitX=1;exitY=0.5;exitDx=0;exitDy=0;" edge="1" parent="1" source="VYR5HJMIhHFBfFQLynJq-27">
          <mxGeometry width="50" height="50" relative="1" as="geometry">
            <mxPoint x="-75" y="535" as="sourcePoint" />
            <mxPoint x="100" y="570" as="targetPoint" />
          </mxGeometry>
        </mxCell>
      </root>
    </mxGraphModel>
  </diagram>
</mxfile>
